<?xml version="1.0" encoding="utf-8"?>
<!-- Generator: Adobe Illustrator 24.3.0, SVG Export Plug-In . SVG Version: 6.00 Build 0)  -->
<svg version="1.1" id="Layer_1" xmlns="http://www.w3.org/2000/svg" xmlns:xlink="http://www.w3.org/1999/xlink" x="0px" y="0px"
	 viewBox="0 0 288 288" style="enable-background:new 0 0 288 288;" xml:space="preserve">
<style type="text/css">
	.st0{fill:#FFFFFF;}
	.st1{fill:#55C2F1;}
	.st2{font-family:'Anton-Regular';}
	.st3{font-size:25.3258px;}
	.st4{font-size:10.8026px;}
	.st5{fill:#FFDA47;}
</style>
<circle class="st0" cx="143.7" cy="145.8" r="123.3"/>
<circle class="st1" cx="143.7" cy="145.8" r="109.8"/>
<g>
	<text transform="matrix(1 0 0 1 119.1958 126.9541)" class="st0 st2 st3">PRACTICAL</text>
	<text transform="matrix(1 0 0 1 119.1958 101.8628)" class="st0 st2 st4">THE</text>
	<g>
		<path class="st5" d="M119.2,195.5v-64.8h15.5v64.8L119.2,195.5L119.2,195.5z"/>
		<path class="st5" d="M149,195.5l-10.3-64.8h15.5l3.2,32.7l0.5,10.6l0.6-10.6l3.5-32.6h15.5l-10.6,64.8L149,195.5L149,195.5z"/>
		<path class="st5" d="M183,191.2c-1.8-3.3-2.8-8.1-2.8-14.3c0-5.1,0.7-9,2-11.7c1.3-2.7,3.2-4.7,5.5-6c2.4-1.2,6-2.6,10.8-4.2
			l4.2-1.4v-0.2V147c0-1.7-0.4-3-1.1-4c-0.7-0.9-1.5-1.4-2.5-1.4c-0.8,0-1.6,0.4-2.2,1.1c-0.6,0.8-1,1.8-1,3.1v3.9h-15v-2
			c0-6.3,1.5-10.9,4.5-13.6c3-2.7,7.8-4,14.5-4c5.4,0,9.8,1.4,13.1,4.2c3.3,2.8,5,6.8,5,11.9v49.4h-15.4v-7.7
			c-0.8,2.6-2,4.8-3.7,6.2c-1.7,1.5-3.7,2.2-6,2.2C188.3,196.2,184.9,194.5,183,191.2z M201.9,182.8c0.5-1,0.8-2.2,0.8-3.6v-18
			c-2.3,0.9-4,2-5.1,3.3c-1.1,1.3-1.7,3.3-1.7,5.6v8.4c0,3.9,1.1,5.7,3.4,5.7C200.6,184.2,201.5,183.7,201.9,182.8z"/>
		<g>
			<path class="st0" d="M104,133c-0.8-1.7-4.4-4.8-5.8-6.2c-0.9-0.9-2.9-2.7-3.9-3.3c-2.9-1.9-5.7-3-9-3.2c-1.1-0.1-9.7,0.4-10,0.5
				c-0.4,0.2-0.7,0.4-1.8,1.4c-1.6,1.4-2.2,1.8-3.3,1.8c-0.6,0-1.6-0.3-2.1-0.5c-0.4-0.3-0.4-0.3-0.4-0.5c-0.2-0.6-0.7-1.1-1.4-1.4
				c-0.3-0.1-0.6-0.1-1.5,0c-1.4,0.2-1.8,0.3-2.3,0.9c-0.7,0.8-0.7,0.8-0.6,5c0.1,3.3,0.1,3.7,0.3,4c0.3,0.4,0.6,0.8,1,1l0,0
				c0.5,0.3,1,0.4,2.1,0.2c1.3-0.1,1.6-0.2,2.1-0.5c0.5-0.4,0.7-0.6,0.7-1.1c0.1-0.5,0.3-0.8,0.8-1.1c1.1-0.7,3.3-0.8,4.8-0.3
				c0.7,0.3,1.1,0.4,1.6,1c0.7,0.7,0.8,1,0.9,2.6v0.4v61.8c0,0.4,0.4,0.9,0.9,0.9h7c0.5,0,0.9-0.4,0.9-0.9v-63.3v-0.1
				c0-0.4,0-0.9,0.1-1c0.2-1.1,1.1-1.8,2.4-2.3c0.4-0.1,0.9-0.1,1.5-0.1c3.8,0.1,9.6,2.8,12.9,5.2c0.4,0.3,1.3,1,1.7,0.8
				C104.3,133.9,104.1,133.1,104,133z"/>
			<path class="st5" d="M113.5,138.1c-0.1-5.9-1.4-10.4-4.1-13.4c-2.7-3-6.8-4.5-12.2-4.5H86.2c2.9,0.4,5.5,1.3,8.2,3.1
				c0.9,0.6,3,2.4,3.9,3.3c1.3,1.4,4.9,4.6,5.8,6.2c0.1,0.2,0.4,1-0.6,1.6c-0.4,0.2-1.2-0.4-1.7-0.8c-3.3-2.4-9.2-5.1-12.9-5.2
				c-0.7,0-1.2,0-1.5,0.1c-1.3,0.4-2.2,1.1-2.4,2.3c0,0.2,0,0.5-0.1,1v0.1v63.3c0,0.4-0.4,0.8-0.8,0.9h12.5c6.2,0,10.6-1.8,13.2-5.6
				c2.6-3.8,4-9.4,3.9-16.9L113.5,138.1z M98.3,178.7c0,2.7-1.4,4-4.1,4h-2.6v-49.3h1.7c1.5,0,2.6,0.2,3.3,0.4
				c0.7,0.3,1.2,0.9,1.5,1.8c0.3,0.9,0.4,2.1,0.4,3.9L98.3,178.7L98.3,178.7z"/>
		</g>
	</g>
</g>
</svg>
